<svg xmlns="http://www.w3.org/2000/svg" version="1.0" width="600px" height="600px" viewBox="0 0 600 600" preserveAspectRatio="xMidYMid meet">
 <g fill="#FFFFFF">
  <path d="M283.6 565.9 c-7.1 -3.8 -14 -7.9 -15.4 -9 -1.4 -1 -2.8 -1.9 -3.3 -1.9 -0.4 0 -5.6 -3.3 -11.4 -7.2 -15.8 -10.9 -16.8 -11.7 -19 -13.7 -1.1 -1 -5.6 -4.7 -10 -8.2 -19.6 -15.5 -42 -40.5 -56.9 -63.4 -11 -16.8 -22.1 -43.4 -25.9 -61.8 l-2.4 -11.7 12.8 0 c7.1 0 12.9 0.2 12.9 0.4 0 0.2 1.8 6.1 4 13.1 3.5 11.3 6 17.5 13.1 32.1 2 4 9.2 15.2 16.3 25.4 10.8 15.3 34.3 38.6 53.1 52.7 1.7 1.2 5 3.8 7.5 5.8 4.3 3.4 18.7 13 31.8 21.4 l6.4 4 4.9 -3.2 c2.7 -1.8 6.2 -3.9 7.7 -4.7 2.8 -1.6 21.8 -14.7 27.6 -19 7.2 -5.5 14.5 -11.5 22.6 -18.9 4.7 -4.3 9.8 -8.8 11.4 -10.2 3.8 -3.2 25.1 -28.3 30.2 -35.6 8.1 -11.6 23.4 -41.8 23.4 -46.4 0 -0.8 1.1 -4.8 2.4 -8.9 l2.4 -7.5 12.6 -0.3 c11 -0.2 12.6 -0.1 12.6 1.3 0 1.5 -0.4 3.5 -3.2 16 -1.7 8 -9.2 27.1 -15 38.5 -13.7 26.9 -35.1 53.1 -63.4 77.7 -14.4 12.5 -15.5 13.3 -33.8 25.8 -5.5 3.7 -10.7 6.9 -11.5 7.2 -0.9 0.4 -2.3 1.1 -3.1 1.8 -1.4 1.1 -4.6 2.9 -21.5 12.2 -3.3 1.8 -6.2 3.3 -6.5 3.3 -0.3 0 -6.3 -3.2 -13.4 -7.1z" />
  <path d="M285.3 477.2 l-9.3 -4.7 0 -56.5 c0 -31.1 -0.3 -70.3 -0.7 -87.2 l-0.6 -30.7 -6.6 -2.9 c-3.6 -1.6 -7.7 -3.3 -9.1 -3.7 -1.4 -0.4 -5.9 -2.3 -10 -4.2 -4.1 -1.9 -10.8 -4.8 -14.8 -6.4 -4.1 -1.6 -9.1 -3.8 -11.2 -4.9 -2.2 -1.1 -6.1 -2.7 -8.7 -3.6 -2.6 -0.9 -7.8 -3.2 -11.5 -5 -10.3 -5.2 -10 -5.4 -9.6 8.1 l0.3 11.4 5 5.2 c6 6.2 15.9 14.7 32.2 27.7 l12.3 9.7 0 60.3 0 60.4 -3.9 -3.1 c-3.7 -2.9 -19.4 -18.4 -26.7 -26.2 -5.2 -5.6 -12.7 -18 -15.1 -24.9 -2.1 -6 -2.2 -8.3 -2.3 -31.5 l0 -25 -3.8 -7.5 c-3.7 -7.5 -6.8 -11.9 -14.8 -20.9 -5.6 -6.2 -12.4 -16.5 -14 -20.9 -0.9 -2.6 -1.3 -10.1 -1.4 -24.9 l0 -21.3 9.9 0 c11.8 0 28.8 -2.1 46.1 -5.6 11.8 -2.4 18.3 -4.3 32.5 -9.4 9.9 -3.6 26.4 -12.9 37.4 -21.1 l10.4 -7.8 3.6 2.8 c2 1.5 6.3 4.6 9.6 6.7 3.3 2.1 6.2 4.2 6.5 4.5 0.3 0.3 3.7 2.3 7.5 4.4 3.9 2.1 8.4 4.6 10 5.6 4.4 2.6 27.6 10.7 37.5 13 16.7 4 30.7 6 46.3 6.6 l15.8 0.6 -0.3 23.1 -0.3 23.1 -3.9 6 c-2.2 3.3 -7.7 10.5 -12.2 16 -8.7 10.5 -11.3 14.1 -15.4 21.5 -2.5 4.4 -2.5 4.9 -3 33 l-0.5 28.5 -2.9 5.5 c-5.8 11 -11.2 17.8 -26.5 32.9 l-15.6 15.4 -0.6 -59.4 -0.7 -59.4 2.7 -2.5 c1.5 -1.4 4.5 -3.9 6.7 -5.6 16.3 -13.1 34.9 -29.1 37.1 -32.1 2.5 -3.3 2.8 -4.5 3.1 -13.7 0.1 -5.6 -0.1 -10.7 -0.6 -11.5 -0.8 -1.1 -2.5 -0.7 -8.8 2.2 -4.4 2 -10.1 4.4 -12.9 5.5 -2.7 1.1 -8.5 3.6 -12.8 5.6 -4.2 2 -8.2 3.6 -8.7 3.6 -0.6 0 -4.6 1.8 -8.9 3.9 -4.4 2.2 -9 4.2 -10.3 4.6 -1.3 0.3 -6.2 2.3 -11 4.3 l-8.8 3.7 0 87.3 c0 69.1 -0.3 87.2 -1.2 87.2 -0.7 0 -5.3 2.1 -10.2 4.5 -5 2.5 -9.9 4.5 -11 4.4 -1.2 0 -6.3 -2.1 -11.3 -4.7z" />
  <path d="M82.5 436.6 l-3 -2.4 -0.3 -89.1 -0.2 -89 2.9 -3.3 c2.6 -2.9 3.5 -3.3 8.1 -3.3 4.6 0 5.5 0.4 8.1 3.3 l2.9 3.2 0 42 0 42 32.6 0 32.7 0 -0.7 4.6 c-0.3 2.6 -0.6 7.5 -0.6 11 l0 6.4 -32 0 -32 0 0 34.5 c0 24.5 -0.3 35.2 -1.2 37 -2.6 5.7 -12 7.3 -17.3 3.1z" />
  <path d="M499.4 437.1 c-1.7 -1.1 -3.6 -3.4 -4.3 -5.2 -0.7 -2.1 -1.1 -14.3 -1.1 -36.5 l0 -33.4 -32 0 -32 0 0 -8.7 c0 -4.9 -0.3 -9.8 -0.6 -11 l-0.6 -2.3 32.6 0 32.5 0 0.3 -42.4 0.3 -42.4 2.4 -2.6 c4.4 -4.7 11.7 -4.7 16.4 0 l2.7 2.7 0 89.1 c-0.1 71.5 -0.3 89.4 -1.4 90.8 -3 4 -10.3 4.9 -15.2 1.9z" />
  <path d="M52.5 399 c-1.1 -0.4 -3 -1.9 -4.2 -3.2 -2.1 -2.2 -2.3 -3.4 -2.5 -17.8 l-0.3 -15.5 -21.1 -0.5 c-15.8 -0.4 -21.5 -0.8 -22.7 -1.9 -2.1 -1.7 -2.5 -17.5 -0.4 -18.8 0.6 -0.4 10.9 -1 22.7 -1.3 l21.5 -0.5 0.5 -23.6 c0.4 -21.1 0.7 -23.9 2.3 -25.7 4.8 -5.2 12.8 -5.3 17.1 -0.1 l2.6 3.1 0 49.8 0 49.9 -3.1 3.6 c-2.5 2.8 -3.8 3.5 -6.8 3.4 -2 0 -4.5 -0.4 -5.6 -0.9z" />
  <path d="M531.2 397.1 c-1.7 -1.4 -3.6 -3.9 -4.2 -5.4 -0.6 -1.8 -1 -19.5 -1 -48.8 0 -36.9 0.3 -46.6 1.4 -49.3 1.6 -3.8 7.1 -7.6 11.1 -7.6 3.1 0 8.1 2.7 9.2 4.9 0.4 0.9 1 12.2 1.3 25.1 l0.5 23.5 22.2 0.5 c20.8 0.5 22.4 0.6 24.3 2.6 2.9 2.8 3.5 8.2 1.6 12.7 -2.5 6 -5.3 6.7 -28.6 6.7 l-20 0 0 15.9 0 15.9 -3.1 3.2 c-2.6 2.6 -3.8 3 -7.4 2.9 -2.9 -0.2 -5.3 -1.1 -7.3 -2.8z" />
  <path d="M172 217.8 c5.6 -16.6 15 -31.6 28.8 -45.9 5.2 -5.5 10 -9.9 10.5 -9.9 0.6 0 2.7 -1.5 4.7 -3.4 6.3 -6.1 33.4 -21 40.3 -22.1 7.7 -1.3 9.4 -2.6 17.5 -12.3 7.8 -9.4 21.6 -23.2 23.3 -23.2 1.4 0 24.4 23.3 27.7 28.2 3 4.3 4 5 10.4 6.9 22.3 6.8 51 25.6 65.1 42.6 9.9 11.9 21.6 32.6 24.5 43.4 l0.9 3.5 -7.1 -3.8 c-3.9 -2 -7.8 -3.8 -8.7 -3.8 -2.8 0 -12.2 -5.1 -19.4 -10.5 -3.8 -2.9 -8.8 -6.2 -11 -7.4 -2.2 -1.1 -8.3 -4.9 -13.5 -8.2 -5.2 -3.4 -12.2 -7.8 -15.6 -9.8 -5.2 -3.1 -10.2 -6.1 -30.9 -18.6 -1.8 -1.1 -7.6 -4.6 -12.8 -7.8 l-9.6 -5.7 -5.8 3.6 c-3.2 2 -8 5.1 -10.8 6.9 -4.4 2.8 -13 8.1 -23 14 -1.8 1.1 -6.6 4 -10.7 6.4 -4 2.4 -9.4 5.9 -12 7.8 -2.7 1.9 -4.8 3.1 -4.8 2.6 0 -0.4 -0.4 -0.3 -0.8 0.3 -0.4 0.6 -4.7 3.5 -9.7 6.5 -4.9 2.9 -11.9 7.5 -15.5 10.2 -6.9 5.2 -15 9.7 -17.4 9.7 -2 0 -13.7 5 -15.7 6.7 -1.3 1.1 -1 -0.4 1.1 -6.9z" />
  <path d="M239.3 134.9 c-7.2 -3.5 -13.6 -10.6 -18.3 -19.9 -4 -8.1 -4.2 -8.8 -3.7 -15.7 0.4 -6.6 0.8 -7.7 4.5 -12.7 6.9 -9.1 16.5 -13.7 33.8 -16 2.2 -0.3 6.7 -0.1 9.9 0.4 6.6 1.1 7.8 0.7 4.9 -1.6 -6.1 -4.8 -18.8 -7.9 -33 -7.9 l-10.2 0 2.9 -3.6 c4.4 -5.6 11 -11.3 17.4 -15 7.6 -4.5 8.2 -4.7 19.4 -7 10.4 -2.1 16.7 -2.4 25.6 -0.9 3.3 0.5 7.8 1.2 10 1.4 5.4 0.7 10.5 2.6 20 7.4 15.7 7.9 27.1 19.1 34.8 34 3.7 7.4 4.6 10.3 5.7 18.7 2.2 17.3 -1.5 32.9 -9.3 39.4 -1.4 1.1 -1.6 0.6 -2.2 -3.6 -2.7 -19.2 -14.1 -35.6 -30 -42.9 -18.1 -8.4 -35.1 -7.9 -52.5 1.3 -12.7 6.7 -23.3 23.6 -24.8 39.6 l-0.7 6.7 -4.2 -2.1z" />
 </g>
<g opacity="0.5" transform="rotate(-45, 300.0, 300.0)">
  <text x="50%" y="50%" font-size="20" text-anchor="middle" fill="#FFFFFF" dominant-baseline="middle">
    generated by vectorizer.io
  </text>
</g>
</svg>